<?xml version="1.0" standalone="no"?>
<!DOCTYPE svg PUBLIC "-//W3C//DTD SVG 20010904//EN"
 "http://www.w3.org/TR/2001/REC-SVG-20010904/DTD/svg10.dtd">
<svg version="1.0" xmlns="http://www.w3.org/2000/svg"
 width="612.000000pt" height="612.000000pt" viewBox="0 0 612.000000 612.000000"
 preserveAspectRatio="xMidYMid meet">
<metadata>
Created by potrace 1.14, written by Peter Selinger 2001-2017
</metadata>
<g transform="translate(0.000000,612.000000) scale(0.100000,-0.100000)"
fill="#000000" stroke="none">
<path d="M920 4757 c-13 -7 -30 -24 -37 -37 -10 -20 -13 -298 -13 -1302 l0
-1278 2205 0 2204 0 -2 1286 -2 1286 -33 29 -32 29 -2133 0 c-1690 0 -2137 -3
-2157 -13z m2908 -166 l1262 -1 0 -1140 0 -1140 -2020 0 -2020 0 -2 488 c-1
268 -2 514 -1 547 0 33 1 327 2 652 l1 593 363 2 c199 2 540 2 757 1 217 -1
963 -2 1658 -2z m-2871 -1147 c-3 -3 -12 -4 -19 -1 -8 3 -5 6 6 6 11 1 17 -2
13 -5z m13 -40 c11 -12 10 -18 -3 -31 -27 -28 -52 1 -38 45 3 8 31 -1 41 -14z
m-60 -14 c0 -4 -6 -10 -13 -13 -7 -3 -13 3 -13 13 0 10 6 16 13 13 7 -3 13 -9
13 -13z m87 -12 c-3 -7 -5 -2 -5 12 0 14 2 19 5 13 2 -7 2 -19 0 -25z m-49
-110 c4 -4 5 14 3 40 -2 26 -1 44 3 41 3 -3 6 -28 7 -57 2 -37 6 -52 18 -55
14 -4 14 -5 -1 -6 -30 -2 -48 27 -46 77 l1 47 4 -40 c3 -22 7 -43 11 -47z m62
-18 c0 -5 -2 -10 -4 -10 -3 0 -8 5 -11 10 -3 6 -1 10 4 10 6 0 11 -4 11 -10z"/>
<path d="M944 3390 c0 -11 5 -19 11 -17 5 2 10 10 10 17 0 7 -5 15 -10 17 -6
2 -11 -6 -11 -17z"/>
<path d="M2782 1653 c-161 -2 -261 -7 -257 -13 3 -5 12 -7 20 -3 8 3 15 0 15
-6 0 -7 27 -11 75 -11 41 0 75 -4 75 -9 0 -5 10 -11 23 -14 26 -4 15 -10 -50
-27 -47 -12 -58 -30 -19 -30 14 0 31 -6 38 -13 7 -8 18 -12 25 -10 11 4 62
-23 74 -39 11 -17 189 -30 329 -25 148 5 163 8 285 57 39 16 84 32 100 36 l30
7 -37 9 c-32 9 -36 12 -23 24 7 8 26 15 42 15 23 2 20 3 -12 9 l-40 7 38 2
c20 0 37 5 37 10 0 6 15 12 33 14 17 2 -76 5 -209 5 -133 1 -261 3 -285 5 -24
2 -162 2 -307 0z"/>
</g>
</svg>
